<?xml version="1.0" encoding="UTF-8"?>
<svg version="1.1" viewBox="0 0 2000 2000" width="500" height="100" xmlns="http://www.w3.org/2000/svg">
<path transform="translate(1600,860)" d="m0 0h65l12 21 15 26 16 27 16 28 6 8 3 1 2-4 11-19 16-27 15-26 10-17 9-15 2-3h61l-1 4-10 17-16 28-10 17-15 26-16 27-13 23-4 6 2 5 14 25 14 24 16 28 30 52 8 14 6 11-2 1h-61l-3-3-15-26-14-24-16-28-14-24-8-13-4-1-6 10-15 26-16 28-28 48-4 6-2 1h-58l-2-1 2-5 10-17 14-25 10-17 15-26 11-19 15-26 13-22-6-11-16-28-14-24-15-26-16-27-14-25z"/>
<path transform="translate(1459,931)" d="m0 0h26l19 3 18 6 14 8 12 11 8 9 8 16 5 15 3 19v38l-1 7-2 1-11 1h-141l5 22 5 12 8 10 11 7 10 4 14 2h13l14-3 10-4 9-7 7-8 5-8 5 1 19 12 17 11 1 3-7 12-7 9-6 7-13 10-16 8-19 5-16 2h-24l-21-3-17-5-17-8-12-9-13-13-9-14-7-15-5-18-3-18v-34l3-19 5-17 8-17 10-14 9-10 13-10 17-9 16-5zm5 45-14 3-9 5-10 9-8 15-4 14v5h97v-11l-4-16-6-10-7-7-11-5-11-2z"/>
<path transform="translate(940,931)" d="m0 0h25l19 3 16 5 16 8 10 7 10 9 8 9 9 15 7 17 4 16 2 13 1 18-1 21-4 21-4 12-8 16-7 11-11 12-8 7-13 8-14 6-19 5-15 2h-24l-19-3-16-5-16-8-10-7-10-9-10-12-8-14-7-19-4-19-1-7v-34l3-19 5-17 8-17 8-12 12-13 12-9 15-8 15-5 15-3zm6 49-15 3-11 6-9 9-6 11-4 11-3 16v31l3 17 5 13 6 9 8 8 12 6 6 2 8 1h13l10-2 12-5 9-7 6-8 5-11 4-15 1-8v-32l-4-20-8-16-7-8-10-6-12-4-8-1z"/>
<path transform="translate(697,931)" d="m0 0h25l16 3 13 5 11 8 8 8 7 11 5 13 3 14 1 7v167l-3 1h-54l-1-1-1-151-2-12-4-10-4-5-9-5-12-3h-15l-13 3-8 4-7 6h-2l-2 4-6 10-4 13-2 13-1 133-9 1h-49l-1-9v-223l1-1h55l1 6v27l1 2 4-2 8-11 5-6 12-9 14-7 12-3z"/>
<path transform="translate(425,931)" d="m0 0h25l16 3 12 5 10 6 10 10 7 11 5 13 3 14 1 7v167l-3 1h-54l-1-1-1-151-2-12-4-9-4-6-9-5-12-3h-15l-13 3-8 4-7 6h-2l-2 4-6 10-4 13-2 13-1 133-8 1h-50l-1-10v-222l1-1h55l1 8v25l1 2 4-2 8-11 5-6 12-9 14-7 12-3z"/>
<path transform="translate(1092,935)" d="m0 0h60l4 9 21 61 17 48 13 37 4 10v2l3-1 5-12 12-34 10-29 17-49 14-40 3-2h57l-1 6-20 55-17 46-21 57-19 51-6 16-2 2h-67l-3-3-19-51-18-49-26-70-18-49-3-7z"/>
<path transform="translate(171,860)" d="m0 0h59l1 1v306l-3 1h-57l-1-1v-306z"/>
</svg>
