<?xml version="1.0" encoding="UTF-8"?>
<svg version="1.1" viewBox="0 0 2000 2000" width="500" height="500" xmlns="http://www.w3.org/2000/svg">
<path transform="translate(1600,859)" d="m0 0h63l4 4 14 24 15 26 28 48 5 8 4-1 6-9 12-20 10-17 15-26 13-22 9-14 2-1h33l26 1v3l-4 7-13 23-14 24-15 26-13 22-12 21-11 19-1 7 14 25 14 24 14 25 10 17 15 26 12 21 7 14v3l-7 1h-54l-3-3-16-27-16-28-16-29-13-22-7-10-4 2-11 19-15 26-14 24-10 18-17 28-4 2h-57l-2-1 2-5 14-24 14-25 14-24 15-26 11-19 13-23 6-12-9-17-10-17-9-16-10-17-9-15-15-26-9-15-13-22z" fill="#FEFEFE"/>
<path transform="translate(1456,931)" d="m0 0h30l22 4 16 6 13 8 10 9 8 9 8 14 5 13 4 20 1 17v13l-2 18-2 2-26 1h-94l-31 1 4 19 5 13 6 8 8 7 13 6 9 2 16 1 14-2 11-4 9-6 5-4 8-12 2-2 6 1 25 16 11 8-2 6-7 12-12 13-11 8-15 8-16 5-10 2-11 1h-26l-20-3-21-7-15-8-10-8-11-11-7-10-9-17-5-15-4-21-1-23 1-16 4-22 5-15 10-19 11-14 8-8 14-10 15-7 13-4zm11 45-16 3-11 6-9 9-8 16-3 10v6l1 1h94l1-1v-8l-3-14-4-9-6-8-9-6-7-3-13-2z" fill="#FEFEFE"/>
<path transform="translate(937,931)" d="m0 0h30l18 3 18 6 12 6 11 8 12 11 8 10 8 14 6 14 4 15 3 21v27l-4 25-6 18-9 17-13 16-12 10-13 8-18 7-18 4-11 1h-26l-18-3-15-5-16-8-10-7-10-9-10-12-9-16-6-17-5-25v-37l3-19 5-16 8-16 7-11 11-12 9-8 13-8 14-6 21-5zm4 50-13 4-9 6-5 5-6 8-5 11-3 11-1 10v29l2 17 6 16 7 10 8 7 11 5 8 2 14 1 13-2 12-5 8-6 7-8 6-13 4-16 1-9v-27l-3-19-6-14-7-9-8-7-8-4-11-3z" fill="#FEFEFE"/>
<path transform="translate(424,931)" d="m0 0h28l18 4 16 8 10 9 9 14 5 12 4 19 1 10v160l-9 1h-49l-1-1-1-148-2-13-5-12-4-5-12-6-18-2-16 3-12 6-7 6-6 10-5 13-3 18-1 130-8 1h-50l-1-1-1-25v-191l1-14 3-2h52l2 3 1 31 6-5 8-10 10-9 14-8 12-4z" fill="#FEFEFE"/>
<path transform="translate(695,931)" d="m0 0h28l19 4 16 8 10 9 7 10 7 16 4 18 1 9v162l-4 1h-54l-1-1-1-153-3-13-6-10-8-6-10-3-14-1-13 2-12 5-9 7-7 10-5 14-3 18-1 130-8 1h-50l-1-1-1-40v-168l1-22 1-1 7-1h48l1 2 1 32 4-2 9-12 7-7 14-9 12-5z" fill="#FEFEFE"/>
<path transform="translate(1093,935)" d="m0 0h59l4 8 17 49 13 37 15 43 7 19 3 8 4 1 3-10 20-56 19-55 15-43 1-1h59l-1 7-12 34-20 54-16 43-19 52-13 34-4 8-1 1h-67l-3-3-9-23-10-29-15-40-13-35-14-37-16-43-6-17-1-5z" fill="#FEFEFE"/>
<path transform="translate(198,859)" d="m0 0h22l11 1 1 1v305l-6 2h-55l-1-1-1-175 1-116 2-10 7-6z" fill="#FEFEFE"/>
</svg>
